<svg id="Layer_1" data-name="Layer 1" xmlns="http://www.w3.org/2000/svg" viewBox="0 0 347.02 182.22"><defs><style>.cls-1{fill:#00c0a7;}</style></defs><polygon class="cls-1" points="115.23 85.58 130.08 62.54 89.79 0 0 139.36 29.69 139.36 89.79 46.09 115.23 85.58"/><polygon class="cls-1" points="172.45 42.86 112.35 136.13 86.9 96.64 72.06 119.68 112.35 182.22 202.14 42.86 172.45 42.86"/><polygon class="cls-1" points="196.39 140.18 256.48 46.91 316.58 140.18 346.27 140.18 256.48 0.82 166.7 140.18 196.39 140.18"/><path class="cls-1" d="M620.65,532.9h-15l-2.87,6.94h-7.68l14.43-32.38h7.4l14.48,32.38h-7.87Zm-2.35-5.69-5.14-12.39L608,527.21Z" transform="translate(-426.53 -358.89)"/><path class="cls-1" d="M702,507.46l-14,32.38H680.6l-14-32.38h8.1l9.84,23.13,10-23.13Z" transform="translate(-426.53 -358.89)"/><path class="cls-1" d="M762.83,532.9h-15l-2.87,6.94h-7.68l14.43-32.38h7.4l14.47,32.38h-7.86Zm-2.36-5.69-5.14-12.39-5.13,12.39Z" transform="translate(-426.53 -358.89)"/></svg>